<svg width="24" height="24" viewBox="0 0 24 24" fill="none" xmlns="http://www.w3.org/2000/svg">
<path fill-rule="evenodd" clip-rule="evenodd" d="M10.702 2.781C10.957 2.301 11.456 2 12 2C12.544 2 13.043 2.301 13.298 2.781L15.761 7.426C15.789 7.48 15.83 7.526 15.879 7.562C15.928 7.598 15.985 7.622 16.045 7.632L21.223 8.539C21.759 8.633 22.198 9.015 22.367 9.532C22.535 10.049 22.404 10.617 22.025 11.008L18.369 14.786C18.327 14.83 18.295 14.883 18.276 14.94C18.257 14.998 18.252 15.059 18.26 15.12L18.997 20.325C19.073 20.863 18.846 21.4 18.406 21.72C17.966 22.04 17.386 22.09 16.897 21.851L12.175 19.541C12.121 19.514 12.061 19.5 12 19.5C11.939 19.5 11.879 19.514 11.824 19.54L7.10197 21.85C6.61297 22.089 6.03297 22.038 5.59297 21.719C5.15297 21.399 4.92597 20.863 5.00197 20.324L5.73897 15.119C5.74797 15.059 5.74197 14.997 5.72297 14.939C5.70397 14.881 5.67297 14.828 5.62997 14.785L1.97397 11.007C1.59597 10.616 1.46397 10.048 1.63197 9.531C1.79997 9.014 2.23997 8.632 2.77597 8.538L7.95397 7.631C8.01397 7.62 8.07097 7.596 8.11997 7.561C8.16897 7.525 8.20997 7.479 8.23797 7.425L10.702 2.781Z" fill="#A5ABB3"/>
</svg>
