<svg width="65" height="65" viewBox="0 0 65 65" fill="none" xmlns="http://www.w3.org/2000/svg">
<circle cx="32.5" cy="32.5" r="32.5" fill="#F3F3F3"/>
<path opacity="0.35" d="M41.2356 46.1082H22.6642C20.0998 46.1082 18.0214 44.0297 18.0214 41.4653V22.8939C18.0214 20.3295 20.0998 18.251 22.6642 18.251H41.2356C43.8001 18.251 45.8785 20.3295 45.8785 22.8939V41.4653C45.8785 44.0297 43.8001 46.1082 41.2356 46.1082Z" fill="#01ACF1"/>
<path d="M45.8785 36.8224V41.4653C45.8785 44.0297 43.8001 46.1082 41.2356 46.1082H22.6642C20.0998 46.1082 18.0214 44.0297 18.0214 41.4653V36.8224H24.7411C25.9808 36.8224 27.1895 37.4895 27.6708 38.6316C28.3749 40.2984 30.0231 41.4653 31.9499 41.4653C33.8767 41.4653 35.5249 40.2984 36.2291 38.6316C36.7104 37.4895 37.9176 36.8224 39.1587 36.8224H45.8785Z" fill="#01ACF1"/>
</svg>
