<svg width="24" height="24" viewBox="0 0 24 24" fill="none" xmlns="http://www.w3.org/2000/svg">
<path opacity="0.35" d="M12 22C17.5228 22 22 17.5228 22 12C22 6.47715 17.5228 2 12 2C6.47715 2 2 6.47715 2 12C2 17.5228 6.47715 22 12 22Z" fill="#A5ABB3"/>
<path d="M12.579 4.02097C10.257 3.85497 7.98301 4.70397 6.343 6.34397C4.703 7.98397 3.857 10.256 4.021 12.578C4.314 16.74 7.934 20 12.26 20H14C14.552 20 15 19.553 15 19C15 18.447 14.552 18 14 18H12.26C8.979 18 6.236 15.557 6.016 12.438C5.893 10.694 6.528 8.98797 7.758 7.75797C8.987 6.52797 10.693 5.89797 12.439 6.01497C15.557 6.23497 18 8.97897 18 12.26V13C18 13.552 17.551 14 17 14C16.449 14 16 13.552 16 13V12C16 9.79397 14.206 7.99997 12 7.99997C9.79401 7.99997 8.00001 9.79397 8.00001 12C8.00001 14.206 9.79401 16 12 16C13.05 16 14 15.585 14.714 14.92C15.265 15.575 16.08 16 17 16C18.654 16 20 14.654 20 13V12.26C20 7.93397 16.74 4.31297 12.579 4.02097ZM12 14C10.897 14 10 13.103 10 12C10 10.897 10.897 9.99997 12 9.99997C13.103 9.99997 14 10.897 14 12C14 13.103 13.103 14 12 14Z" fill="#A5ABB3"/>
</svg>
